# xmcd
#
# Track frame offsets:
#	150
#	21825
#	41996
#	54163
#	65323
#	75194
#	95613
#	120269
#	135940
#	153634
#	166313
#	182740
#	202135
#	218678
#	236680
#	260100
#	283402
#	300815
#	313153
#	329130
#
# Disc length: 4643 seconds
#
# Revision: 1
# Processed by: cddbd v1.5.2PL0 Copyright (c) Steve Scherf et al.
# Submitted via: EZCDAudioConverter 7.0.6.1
#
DISCID=1c122114
DTITLE=Strangers In The Room 3/3
DYEAR=1970
DGENRE=
TTITLE0=Andy Roberts - Queen Of The Moonlight World
TTITLE1=The Pentangle - The Cuckoo
TTITLE2=Mr. Fox - Little Woman [Single]
TTITLE3=Ralph McTell - Father Forgive Them
TTITLE4=Shirley Collins and The Albion Country Band - Just As The Tide Was A 'Fl
TTITLE4=owing
TTITLE5=Incredible String Band - Oh Did I Love A Dream
TTITLE6=Paper Bubble - Strange Days
TTITLE7=Paul Brett's Sage - Dahlia
TTITLE8=Mike Cooper - Your Lovely Ways (Part 1)
TTITLE9=Heron - River Of Fortune
TTITLE10=Jude - Beverley Market Meeting
TTITLE11=Steve Tilston - All In A Dream
TTITLE12=Prelude - Carry Me
TTITLE13=Joan Armatrading - City Girl
TTITLE14=Horslips - Furniture
TTITLE15=Gerry Rafferty - Who Cares
TTITLE16=JSD Band - Young Waters
TTITLE17=9.30 Fly - September
TTITLE18=Lifeblud - Waxing Of The Moon
TTITLE19=Sandy Denny - Who Knows Where The Time Goes
EXTD=
EXTT0=
EXTT1=
EXTT2=
EXTT3=
EXTT4=
EXTT5=
EXTT6=
EXTT7=
EXTT8=
EXTT9=
EXTT10=
EXTT11=
EXTT12=
EXTT13=
EXTT14=
EXTT15=
EXTT16=
EXTT17=
EXTT18=
EXTT19=
PLAYORDER=
